<?xml version="1.0" standalone="no"?>
<!DOCTYPE svg PUBLIC "-//W3C//DTD SVG 20010904//EN"
 "http://www.w3.org/TR/2001/REC-SVG-20010904/DTD/svg10.dtd">
<svg version="1.0" xmlns="http://www.w3.org/2000/svg"
 width="512.000000pt" height="512.000000pt" viewBox="0 0 512.000000 512.000000"
 preserveAspectRatio="xMidYMid meet">
<metadata>
Created by potrace 1.15, written by Peter Selinger 2001-2017
</metadata>
<g transform="translate(0.000000,512.000000) scale(0.100000,-0.100000)"
fill="#000000" stroke="none">
<path d="M2550 3752 c0 -7 1 -13 2 -14 1 -2 -5 -14 -12 -28 -8 -14 -15 -35
-15 -47 -1 -12 -8 -30 -16 -40 -11 -13 -11 -15 0 -9 8 5 6 -2 -5 -19 -10 -16
-20 -35 -22 -44 -6 -30 -8 -36 -15 -48 -5 -7 -5 -13 -1 -13 3 0 -1 -12 -11
-26 -9 -15 -12 -23 -5 -19 8 5 9 2 1 -11 -14 -27 -25 -57 -35 -101 -3 -10 -5
-20 -6 -23 -1 -3 -2 -8 -1 -12 0 -5 -3 -8 -7 -8 -4 0 -9 -12 -10 -27 -1 -14
-8 -34 -16 -42 -7 -9 -11 -21 -9 -28 2 -6 0 -14 -6 -17 -5 -3 -7 -15 -4 -26 3
-11 1 -20 -5 -20 -9 0 -18 -25 -28 -78 -3 -13 -12 -43 -20 -65 -8 -23 -22 -64
-29 -92 -8 -27 -25 -78 -39 -112 -13 -35 -23 -63 -20 -63 3 0 -10 -39 -36
-105 -13 -34 -120 -359 -125 -380 -5 -19 -18 -58 -35 -100 -25 -61 -27 -69
-29 -96 0 -11 -5 -18 -10 -15 -5 4 -8 -2 -6 -11 1 -10 -2 -26 -7 -36 -14 -26
-1 -34 18 -11 8 10 12 13 8 5 -5 -9 -3 -12 5 -7 6 4 9 11 6 16 -3 4 3 14 12
21 14 12 16 12 8 -1 -4 -8 67 60 158 151 92 92 167 172 167 178 0 11 22 34
148 155 l72 70 301 -300 c165 -164 302 -301 304 -303 2 -2 -48 149 -111 335
-120 351 -278 818 -415 1224 -71 210 -99 279 -99 242z"/>
</g>
</svg>
